<svg width="512" height="512" viewBox="0 0 512 512" fill="none" xmlns="http://www.w3.org/2000/svg">
<rect width="512" height="512" rx="128" fill="#24382D"/>
<path d="M289.963 337.635C298.85 347.889 308.99 353.699 320.383 355.066C323.003 355.294 326.364 355.408 330.466 355.408C332.175 355.408 333.029 358.029 333.029 363.27C333.029 368.51 332.175 371.131 330.466 371.131C315.313 370.447 299.021 370.105 281.589 370.105C264.271 370.105 247.694 370.447 231.857 371.131C230.262 371.131 229.465 368.51 229.465 363.27C229.465 358.029 230.262 355.408 231.857 355.408C241.428 355.408 246.213 353.187 246.213 348.743C246.213 345.667 243.877 341.224 239.206 335.413L195.114 280.555C187.937 272.124 183.037 267.908 180.417 267.908C177.797 267.908 176.486 269.56 176.486 272.864V335.413C176.486 348.743 185.373 355.408 203.146 355.408C204.628 355.408 205.368 358.029 205.368 363.27C205.368 368.51 204.628 371.131 203.146 371.131C187.993 370.447 171.758 370.105 154.44 370.105C137.123 370.105 121.4 370.447 107.272 371.131C105.563 371.131 104.709 368.51 104.709 363.27C104.709 358.029 105.563 355.408 107.272 355.408C125.729 355.408 134.958 348.743 134.958 335.413V173.06C134.958 159.729 125.16 153.064 105.563 153.064C103.854 153.064 103 150.387 103 145.032C103 139.677 103.854 137 105.563 137C110.918 137.684 127.268 138.025 154.611 138.025C182.069 138.025 198.475 137.684 203.83 137C205.425 137 206.223 139.677 206.223 145.032C206.223 150.387 205.425 153.064 203.83 153.064C185.601 153.064 176.486 159.729 176.486 173.06V233.899C176.486 236.976 177.455 238.514 179.392 238.514C182.696 238.514 186.968 235.381 192.209 229.114L239.548 172.718C245.586 165.54 248.605 160.47 248.605 157.508C248.605 154.546 245.131 153.064 238.181 153.064C236.7 153.064 235.959 150.387 235.959 145.032C235.959 139.677 236.7 137 238.181 137C243.763 137.57 255.043 137.854 272.019 137.854C289.108 137.854 300.331 137.57 305.686 137C307.281 137 308.078 139.677 308.078 145.032C308.078 150.387 307.281 153.064 305.686 153.064C295.66 153.064 288.197 154.261 283.298 156.653C278.399 158.932 273.728 162.521 269.284 167.42L211.521 234.583C209.925 236.634 209.128 238.628 209.128 240.564C209.128 242.387 209.925 244.267 211.521 246.204L289.963 337.635Z" fill="#F5F5DC"/>
<path d="M408.737 351.478C408.737 357.744 406.174 363.213 401.047 367.884C395.92 372.441 389.654 374.663 382.248 374.549C374.956 374.435 368.576 371.928 363.107 367.029C357.753 362.13 355.075 356.092 355.075 348.914C355.075 341.622 357.411 335.413 362.082 330.286C366.753 325.045 373.475 322.425 382.248 322.425C391.021 322.425 397.629 325.216 402.072 330.799C406.516 336.382 408.737 343.274 408.737 351.478Z" fill="#F5F5DC"/>
</svg>
